<svg xmlns="http://www.w3.org/2000/svg" xmlns:xlink="http://www.w3.org/1999/xlink" width="100%" height="100%" version="1.1" viewBox="0 0 24 24" xml:space="preserve" style="fill-rule:evenodd;clip-rule:evenodd;stroke-linejoin:round;stroke-miterlimit:2"><path d="M8.625,0C9.235,7.189 3,9.664 3,15.996C3,20.297 6.069,23.968 12,24C17.931,24.032 21,19.586 21,15.044C21,10.903 18.938,6.998 15.048,4.57C15.972,7.177 14.742,9.558 13.547,10.378C13.617,7.041 12.422,2.089 8.625,0ZM13.336,13C17.091,16.989 14.785,22 11.769,22C9.934,22 8.99,20.735 9,19.423C9.019,16.99 11.737,16.988 13.336,13Z" style="fill:#f66103"/></svg>