<svg xmlns="http://www.w3.org/2000/svg" xmlns:xlink="http://www.w3.org/1999/xlink" width="100%" height="100%" version="1.1" viewBox="0 0 70 45" xml:space="preserve" style="fill-rule:evenodd;clip-rule:evenodd;stroke-linejoin:round;stroke-miterlimit:2"><g><g><path d="M335.361,71.101L335.361,41.126C335.361,35.011 338.215,30.632 344.302,30.632L381.849,30.632C382.079,30.632 382.3,30.404 382.3,30.178L382.3,24.214C382.3,24.162 382.285,24.111 382.265,24.062L336.356,24.062C326.405,25.327 321.544,32.262 321.544,41.126L321.544,71.1C321.544,77.215 318.61,81.595 312.604,81.595L272.952,81.595C272.727,81.595 272.501,81.746 272.501,82.048L272.501,88.013C272.501,88.26 272.653,88.449 272.831,88.512L317.85,88.512C329.584,88.204 335.361,80.713 335.361,71.101Z" transform="matrix(0.232198,0,0,0.698205,-41.9809,-16.8002)" style="fill:#565656;fill-rule:nonzero"/><path d="M181.104,88.513L194.287,88.513C194.465,88.45 194.617,88.261 194.617,88.014L194.617,68.911C194.617,62.796 198.071,58.567 203.103,58.567L257.404,58.567C269.646,58.567 275.58,51.017 275.58,41.126C275.58,32.262 270.723,25.327 260.767,24.062L180.86,24.062C180.837,24.112 180.798,24.151 180.798,24.214L180.798,30.178C180.798,30.48 180.948,30.632 181.248,30.632L252.822,30.632C258.906,30.632 261.76,35.011 261.76,41.126C261.76,47.242 258.906,51.621 252.822,51.621L196.194,51.621C187.407,51.621 180.798,59.097 180.798,68.911L180.798,88.014C180.797,88.261 180.903,88.449 181.104,88.513Z" transform="matrix(0.232198,0,0,0.698205,-41.9809,-16.8002)" style="fill:#565656;fill-rule:nonzero"/><path d="M382.08,81.596L454.18,81.596C454.401,81.596 454.551,81.747 454.551,81.898L454.551,88.014C454.551,88.316 454.781,88.467 455.002,88.467L467.998,88.467C468.228,88.467 468.447,88.316 468.447,88.014L468.447,82.049C468.447,81.822 468.677,81.596 468.898,81.596L481.814,81.596C482.115,81.596 482.265,81.369 482.265,81.144L482.265,75.103C482.265,74.876 482.115,74.65 481.814,74.65L468.898,74.65C468.677,74.65 468.447,74.423 468.447,74.197L468.447,30.632C468.447,27.077 467.126,24.813 464.905,24.062L461.145,24.062C459.973,24.363 458.699,24.902 457.333,25.723L379.677,73.668C376.673,75.555 375.62,77.668 376.372,79.254C376.972,80.614 378.695,81.596 382.08,81.596ZM393.343,73.593L453.5,36.37C453.879,36.068 454.631,36.144 454.631,36.974L454.631,74.197C454.631,74.424 454.401,74.65 454.18,74.65L393.715,74.65C393.194,74.65 392.963,74.5 392.893,74.348C392.812,74.046 392.962,73.819 393.343,73.593Z" transform="matrix(0.232198,0,0,0.698205,-41.9809,-16.8002)" style="fill:#565656;fill-rule:nonzero"/></g></g></svg>