<?xml version="1.0" encoding="UTF-8"?>
<svg xmlns="http://www.w3.org/2000/svg" xmlns:xlink="http://www.w3.org/1999/xlink" width="1376pt" height="300pt" viewBox="0 0 1376 300" version="1.1">
<g id="surface1">
<path style=" stroke:none;fill-rule:evenodd;fill:rgb(0%,0%,0%);fill-opacity:1;" d="M 28.867188 254.476562 C -1.386719 245.824219 -6.527344 227.960938 7.304688 217.667969 C 20.09375 208.128906 41.835938 201.003906 41.835938 201.003906 L 131.636719 168.917969 L 131.636719 205.472656 L 67.011719 228.710938 C 55.582031 232.878906 53.835938 238.65625 63.125 241.699219 C 72.414062 244.738281 89.199219 243.878906 100.613281 239.765625 L 131.605469 228.460938 L 131.605469 261.171875 C 129.648438 261.53125 127.441406 261.878906 125.429688 262.210938 C 93.089844 267.488281 59.953125 264.832031 28.867188 254.476562 Z M 218.320312 258.28125 L 319.089844 222.308594 C 330.53125 218.140625 332.28125 212.390625 322.992188 209.351562 C 313.703125 206.308594 296.914062 207.167969 285.5 211.292969 L 218.351562 234.988281 L 218.351562 197.222656 L 222.238281 195.90625 C 237.410156 190.996094 253.050781 187.675781 268.90625 186 C 296.191406 182.988281 329.601562 186.417969 355.816406 196.363281 C 385.378906 205.722656 388.710938 219.515625 381.199219 229.015625 C 373.6875 238.515625 355.273438 245.28125 355.273438 245.28125 L 218.351562 294.574219 Z M 230.109375 24.148438 C 283.167969 42.46875 301.148438 65.273438 301.148438 116.664062 C 301.148438 166.738281 270.40625 185.722656 231.359375 166.765625 L 231.359375 73.386719 C 231.359375 62.441406 229.359375 52.355469 219.140625 49.496094 C 211.308594 46.96875 206.449219 54.289062 206.449219 65.234375 L 206.449219 298.921875 L 143.796875 278.921875 L 143.796875 0.300781 C 170.445312 5.273438 209.253906 16.96875 230.109375 24.09375 Z M 364.800781 279.921875 C 364.894531 280.667969 364.613281 281.410156 364.050781 281.90625 C 363.363281 282.332031 362.566406 282.535156 361.757812 282.492188 L 356.941406 282.492188 L 356.941406 277.503906 L 362.050781 277.503906 C 362.621094 277.484375 363.191406 277.585938 363.71875 277.8125 C 364.472656 278.230469 364.902344 279.0625 364.800781 279.921875 Z M 368.257812 291.285156 C 367.980469 291.113281 367.792969 290.828125 367.746094 290.503906 C 367.644531 290.050781 367.597656 289.582031 367.605469 289.117188 L 367.507812 286.851562 C 367.546875 286.027344 367.335938 285.207031 366.898438 284.503906 C 366.605469 284.160156 366.25 283.867188 365.855469 283.644531 C 366.375 283.304688 366.824219 282.867188 367.175781 282.351562 C 367.652344 281.535156 367.886719 280.601562 367.855469 279.65625 C 367.996094 277.816406 366.96875 276.085938 365.285156 275.324219 C 364.246094 274.894531 363.121094 274.691406 361.996094 274.726562 L 353.929688 274.726562 L 353.929688 292.367188 L 356.941406 292.367188 L 356.941406 285.128906 L 361.691406 285.128906 C 362.316406 285.09375 362.945312 285.191406 363.535156 285.410156 C 364.203125 285.789062 364.585938 286.519531 364.523438 287.285156 L 364.660156 290.0625 C 364.667969 290.527344 364.710938 290.992188 364.785156 291.449219 C 364.828125 291.683594 364.902344 291.90625 365.007812 292.117188 L 365.121094 292.324219 L 368.480469 292.324219 L 368.480469 291.296875 Z M 347.582031 283.921875 C 347.570312 280.433594 348.9375 277.085938 351.386719 274.601562 C 353.800781 272.125 357.109375 270.730469 360.566406 270.730469 C 364.023438 270.730469 367.332031 272.125 369.742188 274.601562 C 373.445312 278.371094 374.546875 283.976562 372.550781 288.867188 C 370.558594 293.757812 365.84375 296.988281 360.566406 297.089844 C 357.109375 297.09375 353.800781 295.699219 351.386719 293.226562 C 348.941406 290.75 347.574219 287.40625 347.582031 283.921875 Z M 360.566406 299.757812 C 364.71875 299.761719 368.695312 298.082031 371.589844 295.101562 C 377.679688 288.882812 377.679688 278.933594 371.589844 272.714844 C 368.691406 269.742188 364.714844 268.070312 360.566406 268.074219 C 354.21875 268.195312 348.554688 272.082031 346.15625 277.957031 C 343.761719 283.835938 345.089844 290.578125 349.539062 295.101562 C 352.433594 298.082031 356.414062 299.761719 360.566406 299.757812 Z M 360.566406 299.757812 "/>
<path style=" stroke:none;fill-rule:nonzero;fill:rgb(0%,0%,0%);fill-opacity:1;" d="M 1347.703125 239.765625 L 1345.035156 239.765625 L 1345.035156 221.503906 L 1338.925781 221.503906 L 1338.925781 218.945312 L 1353.839844 218.945312 L 1353.839844 221.503906 L 1347.730469 221.503906 Z M 1366.183594 234.933594 L 1371.890625 218.945312 L 1376.054688 218.945312 L 1376.054688 239.78125 L 1373.277344 239.78125 L 1373.277344 222.363281 L 1366.960938 239.765625 L 1365.265625 239.765625 L 1358.976562 222.363281 L 1358.976562 239.765625 L 1356.339844 239.765625 L 1356.339844 218.933594 L 1360.503906 218.933594 Z M 1312.183594 59.941406 L 1056.6875 59.941406 L 1056.6875 129.222656 C 1056.6875 129.222656 1055.910156 155.972656 1088.984375 155.972656 L 1245.15625 155.972656 C 1251.28125 155.921875 1257.351562 157.15625 1262.972656 159.597656 C 1271.691406 163.488281 1281.496094 171.402344 1281.496094 187.375 C 1281.496094 201.710938 1274.550781 209.851562 1267.679688 214.40625 C 1261.988281 218.082031 1255.347656 220.015625 1248.574219 219.960938 L 1056.6875 219.960938 L 1056.6875 239.40625 L 1270.652344 239.40625 C 1270.652344 239.40625 1319.25 237.433594 1319.25 187.472656 C 1319.25 162.070312 1304.421875 149.484375 1291.074219 143.320312 C 1282.453125 139.355469 1273.070312 137.324219 1263.582031 137.359375 L 1108.800781 137.359375 C 1106.222656 137.394531 1103.675781 136.789062 1101.386719 135.597656 C 1098.082031 133.804688 1094.441406 130.25 1094.441406 123.25 L 1094.441406 79.121094 L 1312.183594 79.121094 Z M 735.113281 219.890625 L 735.113281 239.335938 L 843.558594 239.335938 C 856.523438 239.472656 869.097656 234.921875 878.96875 226.515625 C 889.28125 217.761719 895.085938 204.816406 894.769531 191.292969 L 894.769531 108.636719 C 894.65625 99.480469 898.75 90.777344 905.878906 85.023438 C 910.871094 81.117188 917.046875 79.03125 923.386719 79.121094 L 1017.933594 79.121094 L 1017.933594 59.941406 L 905.335938 59.941406 C 905.335938 59.941406 856.738281 60.71875 856.738281 112.136719 L 856.738281 189.320312 C 856.824219 195.640625 855.117188 201.859375 851.820312 207.253906 C 846.964844 215.375 838.089844 220.226562 828.632812 219.933594 Z M 484.730469 59.941406 L 484.730469 79.121094 L 678.015625 79.121094 C 683.394531 79.078125 688.710938 80.21875 693.597656 82.46875 C 701.261719 86.066406 709.871094 93.46875 709.871094 108.484375 C 709.871094 123.066406 701.261719 130.359375 693.597656 133.972656 C 688.632812 136.25 683.226562 137.40625 677.765625 137.359375 L 534.414062 137.359375 C 525.925781 137.28125 517.539062 139.183594 509.917969 142.917969 C 497.992188 148.902344 484.730469 163 484.730469 186.25 L 484.730469 239.03125 L 521.929688 239.03125 L 521.929688 186.488281 C 521.90625 183.070312 522.519531 179.675781 523.75 176.488281 C 526.816406 168.613281 534.578125 155.972656 552.726562 155.972656 L 697.277344 155.972656 C 702.136719 156 706.976562 155.347656 711.660156 154.042969 C 724.933594 150.265625 747.070312 139.347656 747.070312 108.484375 C 747.070312 60.523438 699.34375 59.941406 699.34375 59.941406 Z M 484.730469 59.941406 "/>
</g>
</svg>
