<?xml version="1.0" encoding="UTF-8" standalone="no"?>
<!DOCTYPE svg PUBLIC "-//W3C//DTD SVG 1.1//EN" "http://www.w3.org/Graphics/SVG/1.1/DTD/svg11.dtd">
<svg width="100%" height="100%" viewBox="0 0 100 80" version="1.1" xmlns="http://www.w3.org/2000/svg" xmlns:xlink="http://www.w3.org/1999/xlink" xml:space="preserve" xmlns:serif="http://www.serif.com/" style="fill-rule:evenodd;clip-rule:evenodd;stroke-linejoin:round;stroke-miterlimit:2;">
    <g transform="matrix(0.1,0,0,0.147315,0,2.53861e-15)">
        <path d="M500,130.735C500.182,130.735 500.411,130.89 500.531,130.997C549.205,168.084 632.537,259.803 607.125,285.712C578.51,310.802 541.03,326.01 500,326.01C458.978,326.01 421.498,310.802 392.875,285.712C367.457,259.803 450.788,168.073 499.462,130.997C499.583,130.899 499.812,130.735 500,130.735ZM584.766,23.855C559.847,9.022 532.84,0 499.987,0C467.147,0 440.14,9.021 415.215,23.855C414.927,24.017 414.812,24.36 414.94,24.66C415.081,24.959 415.404,25.013 415.727,24.939C447.241,18.12 495.112,45.38 499.652,48.114C499.754,48.178 499.86,48.241 499.988,48.241C500.13,48.241 500.237,48.178 500.339,48.114C504.871,45.38 552.736,18.12 584.256,24.939C584.586,25.013 584.909,24.959 585.036,24.66C585.184,24.36 585.07,24.016 584.766,23.855ZM386.086,46.773C385.811,46.912 385.574,47.11 385.365,47.326C355.657,76.858 337.263,117.773 337.263,163.011C337.263,200.151 349.662,234.354 370.541,261.769C370.743,262.031 371.119,262.203 371.409,262.031C371.692,261.866 371.706,261.506 371.604,261.189C359.199,222.771 422.615,129.629 455.38,90.581C455.501,90.443 455.602,90.288 455.602,90.109C455.602,89.874 455.475,89.701 455.32,89.564C405.678,40.11 388.821,45.363 386.086,46.773ZM544.679,89.564C544.526,89.702 544.404,89.874 544.404,90.109C544.404,90.288 544.506,90.443 544.619,90.581C577.378,129.63 640.801,222.771 628.402,261.189C628.294,261.505 628.314,261.866 628.59,262.031C628.88,262.203 629.256,262.031 629.459,261.769C650.337,234.354 662.73,200.141 662.73,163.011C662.73,117.773 644.324,76.858 614.628,47.326C614.42,47.11 614.185,46.912 613.908,46.773C611.173,45.363 594.317,40.11 544.679,89.564ZM150.061,406.317L150.061,446.436L218.73,446.436L218.73,464.096L150.061,464.096L150.061,506.728L227.681,506.728L227.681,525.754L128.94,525.754L128.94,387.297L227.681,387.297L227.681,406.317L150.061,406.317ZM101.475,461.605C94.578,455.274 83.116,450.371 67.403,447.016L55.408,444.496C44.012,442.059 36.099,439.068 31.87,435.613C27.687,432.433 25.559,427.659 25.559,421.429C25.559,415.321 27.943,410.552 32.644,407.252C37.365,403.925 44.288,402.241 53.239,402.241C64.749,402.241 73.209,404.343 78.375,408.497C83.526,412.646 86.462,419.213 87.109,428.035L87.13,428.223L108.042,428.223L108.042,428.008C107.778,414.445 103.037,403.627 93.932,395.876C84.84,388.123 71.088,384.19 53.058,384.19C38.113,384.19 26.084,387.631 17.323,394.414C8.521,401.202 4.069,410.43 4.069,421.818C4.069,433.206 7.733,442.246 14.973,448.723C22.193,455.182 33.03,459.89 47.193,462.732L59,465.252C70.658,467.812 78.848,470.774 83.306,474.041C87.751,477.28 90,481.955 90,487.928C90,495.317 87.259,501.041 81.851,504.935C76.43,508.821 68.556,510.807 58.46,510.807C46.236,510.807 36.902,508.214 30.706,503.096C24.53,497.991 21.304,490.211 21.108,479.989L21.108,479.786L0,479.786L0,480.003C0.122,495.883 5.328,508.142 15.457,516.411C25.58,524.682 39.911,528.857 58.082,528.857C74.818,528.857 88.106,525.126 97.596,517.772C107.085,510.403 111.9,500.166 111.9,487.357C111.901,476.61 108.392,467.949 101.475,461.605ZM354.688,508.668L353.328,487.143C353.065,479.513 351.368,473.311 348.264,468.71C345.253,464.252 340.478,460.999 334.074,459.019C341.145,456.662 346.728,452.633 350.682,447.038C354.75,441.28 356.817,434.094 356.817,425.695C356.817,413.788 352.521,404.305 344.061,397.516C335.609,390.733 323.883,387.291 309.188,387.291L248.79,387.291L248.79,525.741L269.91,525.741L269.91,468.932L309.767,468.932C317.681,468.932 323.486,470.764 327.049,474.393C330.611,478.023 332.605,484.34 332.989,493.164L333.56,507.899C333.695,515.913 335.077,521.894 337.676,525.652L337.736,525.754L359.484,525.754L359.309,525.438C356.877,521.343 355.327,515.706 354.688,508.668ZM269.908,405.543L308.028,405.543C316.722,405.543 323.484,407.416 328.132,411.119C332.773,414.817 335.123,420.366 335.123,427.634C335.123,435.177 332.833,441.049 328.313,445.13C323.789,449.213 317.491,451.286 309.577,451.286L269.908,451.286L269.908,405.543ZM375.896,525.755L397.016,525.755L397.016,387.297L375.896,387.297L375.896,525.755ZM516.865,406.317L516.865,387.297L418.131,387.297L418.131,525.754L516.865,525.754L516.865,506.728L439.245,506.728L439.245,464.096L507.914,464.096L507.914,446.436L439.245,446.436L439.245,406.317L516.865,406.317ZM629.398,461.605C622.502,455.274 611.032,450.371 595.327,447.016L583.339,444.496C571.937,442.059 564.011,439.068 559.8,435.613C555.612,432.433 553.49,427.659 553.49,421.429C553.49,415.321 555.867,410.552 560.567,407.252C565.289,403.925 572.213,402.241 581.164,402.241C592.674,402.241 601.134,404.343 606.291,408.497C611.45,412.646 614.394,419.213 615.033,428.035L615.04,428.223L635.953,428.223L635.953,428.008C635.689,414.445 630.948,403.627 621.849,395.876C612.75,388.123 599.003,384.19 580.974,384.19C566.03,384.19 554.001,387.631 545.232,394.414C536.443,401.202 531.992,410.43 531.992,421.818C531.992,433.206 535.662,442.246 542.896,448.723C550.115,455.182 560.959,459.89 575.115,462.732L586.922,465.252C598.587,467.812 606.756,470.774 611.235,474.041C615.673,477.28 617.923,481.955 617.923,487.928C617.923,495.317 615.182,501.041 609.779,504.935C604.358,508.821 596.478,510.807 586.377,510.807C574.166,510.807 564.825,508.214 558.635,503.096C552.446,497.991 549.219,490.211 549.031,479.989L549.031,479.786L527.925,479.786L527.925,480.003C528.045,495.883 533.252,508.142 543.388,516.411C553.504,524.682 567.842,528.857 586,528.857C602.742,528.857 616.03,525.126 625.52,517.772C635.01,510.403 639.818,500.166 639.818,487.357C639.811,476.61 636.308,467.949 629.398,461.605ZM854.21,543.056L843.648,543.056L843.648,369.996L854.21,369.996L854.21,543.056ZM757.53,453.697L805.685,387.298L782.16,387.298L745.764,437.48L709.362,387.298L685.838,387.298L734.006,453.697L681.736,525.755L705.26,525.755L745.757,469.916L786.254,525.755L809.78,525.755L757.53,453.697ZM989.569,461.605C982.673,455.274 971.209,450.371 955.51,447.016L943.508,444.496C932.106,442.059 924.199,439.068 919.976,435.613C915.788,432.433 913.666,427.659 913.666,421.429C913.666,415.321 916.042,410.552 920.743,407.252C925.465,403.925 932.389,402.241 941.34,402.241C952.842,402.241 961.309,404.343 966.474,408.497C971.626,412.646 974.563,419.213 975.203,428.035L975.216,428.223L996.127,428.223L996.127,428.008C995.865,414.445 991.129,403.627 982.025,395.876C972.925,388.123 959.172,384.19 941.149,384.19C926.206,384.19 914.177,387.631 905.408,394.414C896.626,401.202 892.161,410.43 892.161,421.818C892.161,433.206 895.838,442.246 903.065,448.723C910.291,455.182 921.134,459.89 935.29,462.732L947.098,465.252C958.763,467.812 966.932,470.774 971.411,474.041C975.843,477.28 978.099,481.955 978.099,487.928C978.099,495.317 975.365,501.041 969.955,504.935C964.527,508.821 956.654,510.807 946.553,510.807C934.342,510.807 925,508.214 918.811,503.096C912.622,497.991 909.395,490.211 909.207,479.989L909.207,479.786L888.093,479.786L888.093,480.003C888.23,495.883 893.435,508.142 903.558,516.411C913.674,524.682 928.012,528.857 946.177,528.857C962.918,528.857 976.214,525.126 985.697,517.772C995.192,510.403 1000,500.166 1000,487.357C1000,476.61 996.485,467.949 989.569,461.605Z" style="fill:rgb(86,86,86);fill-rule:nonzero;"/>
    </g>
</svg>
